<svg preserveAspectRatio="none" overflow="visible" style="display: block;" width="12" height="12" viewBox="0 0 12 12" fill="none" xmlns="http://www.w3.org/2000/svg">
<g id="lucide/map-pin">
<g id="Vector">
<path d="M6.30064 10.8989C7.23064 10.0959 10.0001 7.49594 10.0001 4.99944C10.0001 3.93858 9.57871 2.92116 8.82857 2.17101C8.07842 1.42087 7.06101 0.999442 6.00014 0.999442C4.93927 0.999442 3.92186 1.42087 3.17171 2.17101C2.42157 2.92116 2.00014 3.93858 2.00014 4.99944C2.00014 7.49594 4.76964 10.0959 5.69964 10.8989C5.78628 10.9641 5.89174 10.9993 6.00014 10.9993C6.10854 10.9993 6.214 10.9641 6.30064 10.8989Z" stroke="black" stroke-width="0.75" stroke-linecap="round" stroke-linejoin="round"/>
<path d="M6.00014 6.49944C6.82857 6.49944 7.50014 5.82787 7.50014 4.99944C7.50014 4.17102 6.82857 3.49944 6.00014 3.49944C5.17171 3.49944 4.50014 4.17102 4.50014 4.99944C4.50014 5.82787 5.17171 6.49944 6.00014 6.49944Z" stroke="black" stroke-width="0.75" stroke-linecap="round" stroke-linejoin="round"/>
</g>
</g>
</svg>
