<svg preserveAspectRatio="none" overflow="visible" style="display: block;" width="16" height="16" viewBox="0 0 16 16" fill="none" xmlns="http://www.w3.org/2000/svg">
<g id="lucide/mic">
<path id="Vector" d="M8 12.6667V14.6667M8 12.6667C9.23768 12.6667 10.4247 12.175 11.2998 11.2998C12.175 10.4247 12.6667 9.23768 12.6667 8V6.66667M8 12.6667C6.76232 12.6667 5.57534 12.175 4.70017 11.2998C3.825 10.4247 3.33333 9.23768 3.33333 8V6.66667M8 1.33333C9.10457 1.33333 10 2.22876 10 3.33333V8C10 9.10457 9.10457 10 8 10C6.89543 10 6 9.10457 6 8V3.33333C6 2.22876 6.89543 1.33333 8 1.33333Z" stroke="#999999" stroke-linecap="round" stroke-linejoin="round"/>
</g>
</svg>
